<svg xmlns="http://www.w3.org/2000/svg" xmlns:xlink="http://www.w3.org/1999/xlink" width="500" zoomAndPan="magnify" viewBox="0 0 375 374.999991" height="500" preserveAspectRatio="xMidYMid meet" version="1.0"><defs><clipPath id="2e316177b5"><path d="M 59.554688 59.554688 L 315.304688 59.554688 L 315.304688 315.304688 L 59.554688 315.304688 Z M 59.554688 59.554688 " clip-rule="nonzero"/></clipPath></defs><g clip-path="url(#2e316177b5)"><path fill="#ffffff" d="M 187.429688 59.554688 C 185.335938 59.554688 183.246094 59.605469 181.15625 59.707031 C 179.066406 59.8125 176.980469 59.964844 174.894531 60.171875 C 172.8125 60.375 170.738281 60.632812 168.667969 60.9375 C 166.597656 61.246094 164.535156 61.605469 162.484375 62.011719 C 160.429688 62.421875 158.390625 62.878906 156.359375 63.386719 C 154.328125 63.894531 152.3125 64.453125 150.308594 65.0625 C 148.308594 65.667969 146.320312 66.324219 144.351562 67.03125 C 142.378906 67.734375 140.425781 68.488281 138.496094 69.289062 C 136.5625 70.089844 134.648438 70.9375 132.757812 71.832031 C 130.863281 72.726562 128.996094 73.667969 127.148438 74.652344 C 125.304688 75.640625 123.484375 76.671875 121.6875 77.746094 C 119.894531 78.824219 118.125 79.941406 116.386719 81.105469 C 114.644531 82.269531 112.9375 83.472656 111.253906 84.71875 C 109.574219 85.964844 107.925781 87.253906 106.308594 88.582031 C 104.6875 89.910156 103.105469 91.273438 101.554688 92.679688 C 100.003906 94.085938 98.488281 95.527344 97.007812 97.007812 C 95.527344 98.488281 94.085938 100.003906 92.679688 101.554688 C 91.273438 103.105469 89.910156 104.6875 88.582031 106.308594 C 87.253906 107.925781 85.964844 109.574219 84.71875 111.253906 C 83.472656 112.9375 82.269531 114.644531 81.105469 116.386719 C 79.941406 118.125 78.824219 119.894531 77.746094 121.6875 C 76.671875 123.484375 75.640625 125.304688 74.652344 127.148438 C 73.667969 128.996094 72.726562 130.863281 71.832031 132.757812 C 70.9375 134.648438 70.089844 136.5625 69.289062 138.496094 C 68.488281 140.425781 67.734375 142.378906 67.03125 144.351562 C 66.324219 146.320312 65.667969 148.308594 65.0625 150.308594 C 64.453125 152.3125 63.894531 154.328125 63.386719 156.359375 C 62.878906 158.390625 62.421875 160.429688 62.011719 162.484375 C 61.605469 164.535156 61.246094 166.597656 60.9375 168.667969 C 60.632812 170.738281 60.375 172.8125 60.171875 174.894531 C 59.964844 176.980469 59.8125 179.066406 59.707031 181.15625 C 59.605469 183.246094 59.554688 185.335938 59.554688 187.429688 C 59.554688 189.523438 59.605469 191.613281 59.707031 193.703125 C 59.8125 195.792969 59.964844 197.882812 60.171875 199.964844 C 60.375 202.046875 60.632812 204.121094 60.9375 206.191406 C 61.246094 208.261719 61.605469 210.324219 62.011719 212.378906 C 62.421875 214.429688 62.878906 216.472656 63.386719 218.5 C 63.894531 220.53125 64.453125 222.546875 65.0625 224.550781 C 65.667969 226.550781 66.324219 228.539062 67.03125 230.507812 C 67.734375 232.480469 68.488281 234.433594 69.289062 236.367188 C 70.089844 238.300781 70.9375 240.210938 71.832031 242.101562 C 72.726562 243.996094 73.667969 245.863281 74.652344 247.710938 C 75.640625 249.554688 76.671875 251.375 77.746094 253.171875 C 78.824219 254.964844 79.941406 256.734375 81.105469 258.472656 C 82.269531 260.214844 83.472656 261.925781 84.71875 263.605469 C 85.964844 265.285156 87.253906 266.933594 88.582031 268.554688 C 89.910156 270.171875 91.273438 271.753906 92.679688 273.304688 C 94.085938 274.855469 95.527344 276.371094 97.007812 277.851562 C 98.488281 279.332031 100.003906 280.773438 101.554688 282.179688 C 103.105469 283.585938 104.6875 284.949219 106.308594 286.277344 C 107.925781 287.605469 109.574219 288.894531 111.253906 290.140625 C 112.9375 291.386719 114.644531 292.589844 116.386719 293.753906 C 118.125 294.917969 119.894531 296.035156 121.6875 297.113281 C 123.484375 298.1875 125.304688 299.21875 127.148438 300.207031 C 128.996094 301.191406 130.863281 302.132812 132.757812 303.027344 C 134.648438 303.921875 136.5625 304.769531 138.496094 305.570312 C 140.425781 306.371094 142.378906 307.125 144.351562 307.828125 C 146.320312 308.535156 148.308594 309.191406 150.308594 309.796875 C 152.3125 310.40625 154.328125 310.964844 156.359375 311.472656 C 158.390625 311.980469 160.429688 312.4375 162.484375 312.847656 C 164.535156 313.257812 166.597656 313.613281 168.667969 313.921875 C 170.738281 314.226562 172.8125 314.484375 174.894531 314.6875 C 176.980469 314.894531 179.066406 315.046875 181.15625 315.152344 C 183.246094 315.253906 185.335938 315.304688 187.429688 315.304688 C 189.523438 315.304688 191.613281 315.253906 193.703125 315.152344 C 195.792969 315.046875 197.882812 314.894531 199.964844 314.6875 C 202.046875 314.484375 204.121094 314.226562 206.191406 313.921875 C 208.261719 313.613281 210.324219 313.257812 212.378906 312.847656 C 214.429688 312.4375 216.472656 311.980469 218.5 311.472656 C 220.53125 310.964844 222.546875 310.40625 224.550781 309.796875 C 226.550781 309.191406 228.539062 308.535156 230.507812 307.828125 C 232.480469 307.125 234.433594 306.371094 236.367188 305.570312 C 238.300781 304.769531 240.210938 303.921875 242.101562 303.027344 C 243.996094 302.132812 245.863281 301.191406 247.710938 300.207031 C 249.554688 299.21875 251.375 298.1875 253.171875 297.113281 C 254.964844 296.035156 256.734375 294.917969 258.472656 293.753906 C 260.214844 292.589844 261.925781 291.386719 263.605469 290.140625 C 265.285156 288.894531 266.933594 287.605469 268.554688 286.277344 C 270.171875 284.949219 271.753906 283.585938 273.304688 282.179688 C 274.855469 280.773438 276.371094 279.332031 277.851562 277.851562 C 279.332031 276.371094 280.773438 274.855469 282.179688 273.304688 C 283.585938 271.753906 284.949219 270.171875 286.277344 268.554688 C 287.605469 266.933594 288.894531 265.285156 290.140625 263.605469 C 291.386719 261.925781 292.589844 260.214844 293.753906 258.472656 C 294.917969 256.734375 296.035156 254.964844 297.113281 253.171875 C 298.1875 251.375 299.21875 249.554688 300.207031 247.710938 C 301.191406 245.863281 302.132812 243.996094 303.027344 242.101562 C 303.921875 240.210938 304.769531 238.300781 305.570312 236.367188 C 306.371094 234.433594 307.125 232.480469 307.828125 230.507812 C 308.535156 228.539062 309.191406 226.550781 309.796875 224.550781 C 310.40625 222.546875 310.964844 220.53125 311.472656 218.5 C 311.980469 216.472656 312.441406 214.429688 312.847656 212.378906 C 313.257812 210.324219 313.613281 208.261719 313.921875 206.191406 C 314.226562 204.121094 314.484375 202.046875 314.6875 199.964844 C 314.894531 197.882812 315.046875 195.792969 315.152344 193.703125 C 315.253906 191.613281 315.304688 189.523438 315.304688 187.429688 C 315.304688 185.335938 315.253906 183.246094 315.148438 181.15625 C 315.046875 179.066406 314.894531 176.980469 314.6875 174.894531 C 314.480469 172.8125 314.226562 170.738281 313.917969 168.667969 C 313.613281 166.597656 313.253906 164.535156 312.84375 162.484375 C 312.4375 160.429688 311.976562 158.390625 311.46875 156.359375 C 310.960938 154.332031 310.402344 152.3125 309.796875 150.3125 C 309.1875 148.308594 308.53125 146.324219 307.824219 144.351562 C 307.121094 142.382812 306.367188 140.429688 305.566406 138.496094 C 304.765625 136.5625 303.917969 134.652344 303.023438 132.757812 C 302.128906 130.867188 301.1875 129 300.199219 127.152344 C 299.214844 125.308594 298.183594 123.488281 297.105469 121.691406 C 296.03125 119.898438 294.910156 118.128906 293.75 116.390625 C 292.585938 114.648438 291.382812 112.941406 290.136719 111.257812 C 288.886719 109.578125 287.601562 107.929688 286.273438 106.3125 C 284.945312 104.695312 283.578125 103.109375 282.175781 101.558594 C 280.769531 100.007812 279.328125 98.492188 277.847656 97.011719 C 276.367188 95.535156 274.851562 94.089844 273.300781 92.683594 C 271.75 91.28125 270.167969 89.914062 268.546875 88.585938 C 266.929688 87.257812 265.28125 85.972656 263.601562 84.726562 C 261.921875 83.476562 260.210938 82.273438 258.46875 81.109375 C 256.730469 79.949219 254.960938 78.828125 253.167969 77.753906 C 251.371094 76.675781 249.550781 75.644531 247.707031 74.660156 C 245.859375 73.671875 243.992188 72.730469 242.101562 71.835938 C 240.207031 70.941406 238.296875 70.09375 236.363281 69.292969 C 234.429688 68.492188 232.476562 67.738281 230.507812 67.035156 C 228.539062 66.328125 226.550781 65.671875 224.546875 65.066406 C 222.546875 64.457031 220.53125 63.898438 218.5 63.390625 C 216.46875 62.882812 214.429688 62.421875 212.375 62.015625 C 210.324219 61.605469 208.261719 61.25 206.191406 60.941406 C 204.121094 60.632812 202.046875 60.378906 199.964844 60.171875 C 197.878906 59.964844 195.792969 59.8125 193.703125 59.710938 C 191.613281 59.605469 189.523438 59.554688 187.429688 59.554688 Z M 187.429688 107.507812 C 188.1875 107.507812 188.941406 107.527344 189.699219 107.574219 C 190.453125 107.617188 191.207031 107.679688 191.957031 107.769531 C 192.710938 107.855469 193.457031 107.964844 194.203125 108.09375 C 194.949219 108.222656 195.6875 108.375 196.425781 108.546875 C 197.160156 108.722656 197.890625 108.917969 198.617188 109.132812 C 199.34375 109.347656 200.0625 109.582031 200.773438 109.839844 C 201.484375 110.097656 202.1875 110.375 202.882812 110.671875 C 203.578125 110.96875 204.265625 111.289062 204.941406 111.625 C 205.617188 111.960938 206.285156 112.320312 206.941406 112.695312 C 207.597656 113.070312 208.242188 113.464844 208.878906 113.878906 C 209.511719 114.292969 210.132812 114.722656 210.742188 115.171875 C 211.347656 115.621094 211.945312 116.089844 212.527344 116.570312 C 213.109375 117.054688 213.675781 117.554688 214.226562 118.074219 C 214.78125 118.589844 215.316406 119.121094 215.839844 119.667969 C 216.363281 120.214844 216.867188 120.777344 217.355469 121.355469 C 217.847656 121.933594 218.320312 122.523438 218.773438 123.125 C 219.230469 123.730469 219.667969 124.347656 220.085938 124.976562 C 220.507812 125.605469 220.90625 126.246094 221.289062 126.902344 C 221.671875 127.554688 222.035156 128.214844 222.378906 128.890625 C 222.722656 129.5625 223.046875 130.246094 223.351562 130.9375 C 223.65625 131.632812 223.941406 132.332031 224.203125 133.042969 C 224.46875 133.75 224.710938 134.464844 224.933594 135.191406 C 225.15625 135.914062 225.359375 136.640625 225.539062 137.375 C 225.71875 138.109375 225.878906 138.851562 226.015625 139.59375 C 226.152344 140.335938 226.269531 141.085938 226.363281 141.835938 C 226.457031 142.585938 226.53125 143.339844 226.582031 144.09375 C 226.632812 144.847656 226.664062 145.605469 226.667969 146.359375 C 226.675781 147.117188 226.660156 147.875 226.625 148.628906 C 226.589844 149.382812 226.53125 150.136719 226.449219 150.890625 C 226.371094 151.644531 226.265625 152.390625 226.144531 153.136719 C 226.019531 153.882812 225.875 154.625 225.707031 155.363281 C 225.542969 156.101562 225.355469 156.835938 225.144531 157.5625 C 224.9375 158.289062 224.707031 159.011719 224.457031 159.722656 C 224.207031 160.4375 223.933594 161.144531 223.644531 161.839844 C 223.351562 162.539062 223.039062 163.230469 222.707031 163.910156 C 222.378906 164.589844 222.027344 165.257812 221.65625 165.917969 C 221.285156 166.578125 220.898438 167.226562 220.488281 167.863281 C 220.082031 168.5 219.65625 169.125 219.210938 169.738281 C 218.769531 170.351562 218.308594 170.949219 217.828125 171.535156 C 217.351562 172.121094 216.855469 172.695312 216.34375 173.25 C 215.832031 173.808594 215.304688 174.351562 214.761719 174.878906 C 214.21875 175.40625 213.660156 175.914062 213.089844 176.410156 C 212.515625 176.90625 211.929688 177.382812 211.332031 177.84375 C 210.730469 178.304688 210.117188 178.746094 209.492188 179.171875 C 208.867188 179.597656 208.230469 180.003906 207.578125 180.390625 C 206.929688 180.78125 206.269531 181.148438 205.597656 181.5 C 204.929688 181.847656 204.25 182.179688 203.558594 182.492188 C 202.867188 182.800781 202.171875 183.089844 201.464844 183.363281 C 200.757812 183.632812 200.042969 183.882812 199.324219 184.109375 C 198.601562 184.339844 197.875 184.546875 197.140625 184.734375 C 196.410156 184.921875 195.671875 185.085938 194.929688 185.230469 C 194.1875 185.375 193.441406 185.5 192.691406 185.597656 C 191.941406 185.699219 191.1875 185.78125 190.433594 185.835938 C 189.679688 185.894531 188.925781 185.929688 188.167969 185.945312 C 187.410156 185.957031 186.65625 185.949219 185.898438 185.921875 C 185.144531 185.890625 184.390625 185.839844 183.636719 185.765625 C 182.882812 185.691406 182.132812 185.597656 181.386719 185.480469 C 180.636719 185.363281 179.894531 185.222656 179.15625 185.0625 C 178.417969 184.90625 177.683594 184.722656 176.953125 184.519531 C 176.222656 184.316406 175.5 184.09375 174.785156 183.851562 C 174.070312 183.605469 173.363281 183.339844 172.660156 183.054688 C 171.960938 182.769531 171.269531 182.464844 170.585938 182.140625 C 169.902344 181.816406 169.230469 181.46875 168.566406 181.105469 C 167.902344 180.742188 167.25 180.359375 166.609375 179.957031 C 133.683594 159.097656 147.949219 107.90625 187.429688 107.507812 Z M 233.425781 267.351562 L 141.433594 267.351562 C 140.484375 267.351562 139.539062 267.300781 138.59375 267.207031 C 137.648438 267.113281 136.710938 266.972656 135.78125 266.785156 C 134.851562 266.597656 133.933594 266.367188 133.023438 266.089844 C 132.117188 265.8125 131.222656 265.492188 130.347656 265.128906 C 129.46875 264.761719 128.613281 264.355469 127.777344 263.910156 C 126.941406 263.460938 126.128906 262.972656 125.339844 262.445312 C 124.550781 261.914062 123.789062 261.351562 123.054688 260.746094 C 122.324219 260.144531 121.621094 259.507812 120.949219 258.835938 C 120.28125 258.164062 119.644531 257.460938 119.042969 256.726562 C 118.441406 255.992188 117.875 255.230469 117.347656 254.441406 C 116.820312 253.652344 116.335938 252.839844 115.886719 252.003906 C 115.441406 251.164062 115.035156 250.308594 114.671875 249.429688 C 114.308594 248.554688 113.988281 247.660156 113.714844 246.753906 C 113.4375 245.84375 113.207031 244.925781 113.023438 243.992188 C 112.835938 243.0625 112.699219 242.125 112.605469 241.179688 C 112.511719 240.234375 112.464844 239.289062 112.464844 238.339844 C 112.464844 213.765625 130.566406 192.542969 156.539062 182.996094 C 157.609375 183.898438 158.714844 184.753906 159.859375 185.5625 C 161.003906 186.367188 162.179688 187.125 163.390625 187.828125 C 164.601562 188.53125 165.839844 189.179688 167.109375 189.777344 C 168.375 190.371094 169.667969 190.910156 170.980469 191.390625 C 172.296875 191.871094 173.628906 192.296875 174.980469 192.660156 C 176.332031 193.023438 177.699219 193.328125 179.078125 193.574219 C 180.457031 193.816406 181.84375 194 183.238281 194.125 C 184.632812 194.246094 186.03125 194.308594 187.429688 194.308594 C 188.828125 194.308594 190.226562 194.246094 191.621094 194.125 C 193.015625 194 194.402344 193.816406 195.78125 193.574219 C 197.160156 193.328125 198.527344 193.023438 199.878906 192.660156 C 201.230469 192.296875 202.5625 191.871094 203.878906 191.390625 C 205.191406 190.910156 206.484375 190.371094 207.75 189.777344 C 209.019531 189.179688 210.257812 188.53125 211.46875 187.828125 C 212.679688 187.125 213.855469 186.367188 215 185.5625 C 216.144531 184.753906 217.25 183.898438 218.320312 182.996094 C 244.292969 192.542969 262.398438 213.765625 262.398438 238.339844 C 262.394531 239.289062 262.347656 240.234375 262.253906 241.179688 C 262.164062 242.125 262.023438 243.0625 261.835938 243.992188 C 261.652344 244.925781 261.421875 245.84375 261.144531 246.753906 C 260.871094 247.660156 260.550781 248.554688 260.1875 249.429688 C 259.824219 250.308594 259.417969 251.164062 258.972656 252.003906 C 258.523438 252.839844 258.039062 253.652344 257.511719 254.441406 C 256.984375 255.230469 256.417969 255.992188 255.816406 256.726562 C 255.214844 257.460938 254.578125 258.164062 253.910156 258.835938 C 253.238281 259.507812 252.535156 260.144531 251.804688 260.746094 C 251.070312 261.351562 250.308594 261.914062 249.519531 262.445312 C 248.730469 262.972656 247.917969 263.460938 247.082031 263.910156 C 246.246094 264.355469 245.390625 264.761719 244.511719 265.128906 C 243.636719 265.492188 242.742188 265.8125 241.835938 266.089844 C 240.929688 266.367188 240.007812 266.597656 239.078125 266.785156 C 238.148438 266.972656 237.210938 267.113281 236.265625 267.207031 C 235.320312 267.300781 234.375 267.351562 233.425781 267.351562 Z M 233.425781 267.351562 " fill-opacity="1" fill-rule="nonzero"/></g></svg>